<svg width="22" height="19" viewBox="0 0 22 19" fill="none" xmlns="http://www.w3.org/2000/svg">
    <path d="M0.5 10.8081V10.8075V10.8074L1.3125 10.0014C1.31581 10.0012 1.31931 10.0011 1.32299 10.001C1.35193 10 1.38337 10 1.42446 10H3.95683C4.4758 10 4.8813 10.408 4.8813 10.9132V17.5868C4.8813 18.092 4.4758 18.5 3.95683 18.5H1.42446C0.905495 18.5 0.5 18.092 0.5 17.5868V10.9917V10.9913V10.9908V10.9904V10.9899V10.9895V10.989V10.9886V10.9881V10.9877V10.9872V10.9868V10.9863V10.9859V10.9855V10.985V10.9846V10.9842V10.9837V10.9833V10.9829V10.9825V10.982V10.9816V10.9812V10.9808V10.9804V10.98V10.9795V10.9791V10.9787V10.9783V10.9779V10.9775V10.9771V10.9767V10.9763V10.9759V10.9755V10.9751V10.9747V10.9743V10.974V10.9736V10.9732V10.9728V10.9724V10.972V10.9717V10.9713V10.9709V10.9705V10.9702V10.9698V10.9694V10.9691V10.9687V10.9683V10.968V10.9676V10.9672V10.9669V10.9665V10.9662V10.9658V10.9655V10.9651V10.9648V10.9644V10.9641V10.9637V10.9634V10.9631V10.9627V10.9624V10.962V10.9617V10.9614V10.961V10.9607V10.9604V10.9601V10.9597V10.9594V10.9591V10.9588V10.9584V10.9581V10.9578V10.9575V10.9572V10.9569V10.9566V10.9563V10.9559V10.9556V10.9553V10.955V10.9547V10.9544V10.9541V10.9538V10.9535V10.9532V10.953V10.9527V10.9524V10.9521V10.9518V10.9515V10.9512V10.9509V10.9507V10.9504V10.9501V10.9498V10.9495V10.9493V10.949V10.9487V10.9485V10.9482V10.9479V10.9477V10.9474V10.9471V10.9469V10.9466V10.9463V10.9461V10.9458V10.9456V10.9453V10.9451V10.9448V10.9446V10.9443V10.9441V10.9438V10.9436V10.9433V10.9431V10.9429V10.9426V10.9424V10.9421V10.9419V10.9417V10.9414V10.9412V10.941V10.9407V10.9405V10.9403V10.9401V10.9398V10.9396V10.9394V10.9392V10.939V10.9387V10.9385V10.9383V10.9381V10.9379V10.9377V10.9375V10.9372V10.937V10.9368V10.9366V10.9364V10.9362V10.936V10.9358V10.9356V10.9354V10.9352V10.935V10.9348V10.9346V10.9344V10.9342V10.9341V10.9339V10.9337V10.9335V10.9333V10.9331V10.9329V10.9328V10.9326V10.9324V10.9322V10.932V10.9319V10.9317V10.9315V10.9313V10.9312V10.931V10.9308V10.9306V10.9305V10.9303V10.9301V10.93V10.9298V10.9297V10.9295V10.9293V10.9292V10.929V10.9289V10.9287V10.9285V10.9284V10.9282V10.9281V10.9279V10.9278V10.9276V10.9275V10.9273V10.9272V10.9271V10.9269V10.9268V10.9266V10.9265V10.9263V10.9262V10.9261V10.9259V10.9258V10.9257V10.9255V10.9254V10.9253V10.9251V10.925V10.9249V10.9247V10.9246V10.9245V10.9244V10.9242V10.9241V10.924V10.9239V10.9237V10.9236V10.9235V10.9234V10.9233V10.9232V10.923V10.9229V10.9228V10.9227V10.9226V10.9225V10.9224V10.9223V10.9221V10.922V10.9219V10.9218V10.9217V10.9216V10.9215V10.9214V10.9213V10.9212V10.9211V10.921V10.9209V10.9208V10.9207V10.9206V10.9205V10.9204V10.9203V10.9202V10.9202V10.9201V10.92V10.9199V10.9198V10.9197V10.9196V10.9195V10.9195V10.9194V10.9193V10.9192V10.9191V10.919V10.919V10.9189V10.9188V10.9187V10.9186V10.9186V10.9185V10.9184V10.9183V10.9183V10.9182V10.9181V10.918V10.918V10.9179V10.9178V10.9178V10.9177V10.9176V10.9176V10.9175V10.9174V10.9174V10.9173V10.9172V10.9172V10.9171V10.917V10.917V10.9169V10.9169V10.9168V10.9167V10.9167V10.9166V10.9166V10.9165V10.9165V10.9164V10.9164V10.9163V10.9163V10.9162V10.9161V10.9161V10.916V10.916V10.9159V10.9159V10.9159V10.9158V10.9158V10.9157V10.9157V10.9156V10.9156V10.9155V10.9155V10.9154V10.9154V10.9154V10.9153V10.9153V10.9152V10.9152V10.9152V10.9151V10.9151V10.915V10.915V10.915V10.9149V10.9149V10.9149V10.9148V10.9148V10.9148V10.9147V10.9147V10.9147V10.9146V10.9146V10.9146V10.9145V10.9145V10.9145V10.9144V10.9144V10.9144V10.9144V10.9143V10.9143V10.9143V10.9143V10.9142V10.9142V10.9142V10.9142V10.9141V10.9141V10.9141V10.9141V10.914V10.914V10.914V10.914V10.914V10.9139V10.9139V10.9139V10.9139V10.9139V10.9138V10.9138V10.9138V10.9138V10.9138V10.9138V10.9137V10.9137V10.9137V10.9137V10.9137V10.9137V10.9136V10.9136V10.9136V10.9136V10.9136V10.9136V10.9136V10.9136V10.9135V10.9135V10.9135V10.9135V10.9135V10.9135V10.9135V10.9135V10.9135V10.9135V10.9134V10.9134V10.9134V10.9134V10.9134V10.9134V10.9134V10.9134V10.9134V10.9134V10.9133V10.9133V10.9133V10.9133V10.9133V10.9133V10.9133V10.9133V10.9133V10.9133V10.9132V10.9132V10.9132V10.9132V10.9128V10.9123V10.9118V10.9114V10.9109V10.9104V10.91V10.9095V10.909V10.9085V10.9081V10.9076V10.9071V10.9066V10.9061V10.9056V10.9051V10.9047V10.9042V10.9037V10.9032V10.9027V10.9022V10.9017V10.9012V10.9007V10.9002V10.8997V10.8992V10.8986V10.8981V10.8976V10.8971V10.8966V10.8961V10.8956V10.895V10.8945V10.894V10.8935V10.8929V10.8924V10.8919V10.8913V10.8908V10.8903V10.8897V10.8892V10.8887V10.8881V10.8876V10.887V10.8865V10.8859V10.8854V10.8848V10.8843V10.8837V10.8832V10.8826V10.8821V10.8815V10.881V10.8804V10.8798V10.8793V10.8787V10.8782V10.8776V10.877V10.8764V10.8759V10.8753V10.8747V10.8742V10.8736V10.873V10.8724V10.8719V10.8713V10.8707V10.8701V10.8695V10.8689V10.8683V10.8678V10.8672V10.8666V10.866V10.8654V10.8648V10.8642V10.8636V10.863V10.8624V10.8618V10.8612V10.8606V10.86V10.8594V10.8588V10.8582V10.8576V10.857V10.8564V10.8558V10.8551V10.8545V10.8539V10.8533V10.8527V10.8521V10.8515V10.8508V10.8502V10.8496V10.849V10.8484V10.8477V10.8471V10.8465V10.8458V10.8452V10.8446V10.844V10.8433V10.8427V10.8421V10.8414V10.8408V10.8402V10.8395V10.8389V10.8383V10.8376V10.837V10.8363V10.8357V10.8351V10.8344V10.8338V10.8331V10.8325V10.8318V10.8312V10.8305V10.8299V10.8293V10.8286V10.828V10.8273V10.8266V10.826V10.8253V10.8247V10.824V10.8234V10.8227V10.8221V10.8214V10.8208V10.8201V10.8194V10.8188V10.8181V10.8174V10.8168V10.8161V10.8155V10.8148V10.8141V10.8135V10.8128V10.8121V10.8115V10.8108V10.8101V10.8095V10.8088V10.8081ZM20.749 10.0264L21.4865 10.3922C21.4954 10.5648 21.5 10.7385 21.5 10.9132V17.5083C21.5 18.0135 21.0945 18.4215 20.5755 18.4215H18.0432C17.5242 18.4215 17.1187 18.0135 17.1187 17.5083V10.9132C17.1187 10.408 17.5242 10 18.0432 10H20.5755C20.6175 10 20.642 10.0001 20.6628 10.0009C20.6813 10.0016 20.689 10.0026 20.6918 10.0031C20.6937 10.0034 20.6963 10.0039 20.7025 10.006C20.7098 10.0085 20.7241 10.0141 20.749 10.0264Z" fill="#E9E9E9" stroke="#707070"/>
</svg>