<svg width="14" height="14" viewBox="0 0 14 14" fill="none" xmlns="http://www.w3.org/2000/svg">
<path d="M0.544922 2.0459C0.544922 1.21747 1.21649 0.545898 2.04492 0.545898L11.9531 0.545898C12.7815 0.545898 13.4531 1.21747 13.4531 2.0459L13.4531 11.954C13.4531 12.7825 12.7815 13.454 11.9531 13.454L0.544922 13.454L0.544922 2.0459Z" fill="#E9E9E9" stroke="#5D5D5D"/>
<mask id="path-2-inside-1_967_12224" fill="white">
<ellipse cx="3.68738" cy="6.82829" rx="0.947149" ry="0.94987"/>
</mask>
<path d="M3.63453 6.82829C3.63453 6.80331 3.65549 6.77816 3.68738 6.77816L3.68738 8.77816C4.76547 8.77816 5.63453 7.90247 5.63453 6.82829H3.63453ZM3.68738 6.77816C3.71927 6.77816 3.74023 6.80331 3.74023 6.82829H1.74023C1.74023 7.90247 2.6093 8.77816 3.68738 8.77816L3.68738 6.77816ZM3.74023 6.82829C3.74023 6.85327 3.71927 6.87842 3.68738 6.87842V4.87842C2.6093 4.87842 1.74023 5.75411 1.74023 6.82829H3.74023ZM3.68738 6.87842C3.65549 6.87842 3.63453 6.85327 3.63453 6.82829H5.63453C5.63453 5.75411 4.76547 4.87842 3.68738 4.87842V6.87842Z" fill="#5D5D5D" mask="url(#path-2-inside-1_967_12224)"/>
<mask id="path-4-inside-2_967_12224" fill="white">
<ellipse cx="7.00184" cy="6.82829" rx="0.947149" ry="0.94987"/>
</mask>
<path d="M6.94899 6.82829C6.94899 6.80331 6.96995 6.77816 7.00184 6.77816V8.77816C8.07992 8.77816 8.94899 7.90247 8.94899 6.82829H6.94899ZM7.00184 6.77816C7.03373 6.77816 7.05469 6.80331 7.05469 6.82829H5.05469C5.05469 7.90247 5.92375 8.77816 7.00184 8.77816V6.77816ZM7.05469 6.82829C7.05469 6.85327 7.03373 6.87842 7.00184 6.87842V4.87842C5.92375 4.87842 5.05469 5.75411 5.05469 6.82829H7.05469ZM7.00184 6.87842C6.96995 6.87842 6.94899 6.85327 6.94899 6.82829H8.94899C8.94899 5.75411 8.07992 4.87842 7.00184 4.87842V6.87842Z" fill="#5D5D5D" mask="url(#path-4-inside-2_967_12224)"/>
<mask id="path-6-inside-3_967_12224" fill="white">
<ellipse cx="10.3163" cy="6.82829" rx="0.947149" ry="0.94987"/>
</mask>
<path d="M10.2634 6.82829C10.2634 6.80331 10.2844 6.77816 10.3163 6.77816V8.77816C11.3944 8.77816 12.2634 7.90247 12.2634 6.82829H10.2634ZM10.3163 6.77816C10.3482 6.77816 10.3691 6.80331 10.3691 6.82829H8.36914C8.36914 7.90247 9.23821 8.77816 10.3163 8.77816V6.77816ZM10.3691 6.82829C10.3691 6.85327 10.3482 6.87842 10.3163 6.87842V4.87842C9.23821 4.87842 8.36914 5.75411 8.36914 6.82829H10.3691ZM10.3163 6.87842C10.2844 6.87842 10.2634 6.85327 10.2634 6.82829H12.2634C12.2634 5.75411 11.3944 4.87842 10.3163 4.87842V6.87842Z" fill="#5D5D5D" mask="url(#path-6-inside-3_967_12224)"/>
</svg>
