<svg width="36" height="36" viewBox="0 0 36 36" fill="none" xmlns="http://www.w3.org/2000/svg">
<rect width="36" height="36" rx="8" fill="#FF5349"/>
<path d="M18 9C17.4089 9 16.9297 9.47919 16.9297 10.0703V16.9298H10.0703C9.47919 16.9298 9 17.4089 9 18C9 18.5911 9.47919 19.0703 10.0703 19.0703H16.9297V25.9297C16.9297 26.5208 17.4089 27 18 27C18.5911 27 19.0703 26.5208 19.0703 25.9297V19.0703H25.9297C26.5208 19.0703 27 18.5911 27 18C27 17.4089 26.5208 16.9298 25.9297 16.9298H19.0703V10.0703C19.0703 9.47919 18.5911 9 18 9Z" fill="#F2F2F2" stroke="#F2F2F2"/>
</svg>
