<svg width="22" height="22" viewBox="0 0 22 22" fill="none" xmlns="http://www.w3.org/2000/svg">
<path d="M0 4C0 1.79086 1.79086 0 4 0L18 0C20.2091 0 22 1.79086 22 4L22 18C22 20.2091 20.2091 22 18 22L4 22C1.79086 22 0 20.2091 0 18L0 4Z" fill="#E9E9E9"/>
<path fill-rule="evenodd" clip-rule="evenodd" d="M18 1.5L4 1.5C2.61929 1.5 1.5 2.61929 1.5 4L1.5 18C1.5 19.3807 2.61929 20.5 4 20.5L18 20.5C19.3807 20.5 20.5 19.3807 20.5 18L20.5 4C20.5 2.61929 19.3807 1.5 18 1.5ZM4 0C1.79086 0 0 1.79086 0 4L0 18C0 20.2091 1.79086 22 4 22L18 22C20.2091 22 22 20.2091 22 18L22 4C22 1.79086 20.2091 0 18 0L4 0Z" fill="#FF5349"/>
<path fill-rule="evenodd" clip-rule="evenodd" d="M5.80078 14.25C5.38657 14.25 5.05078 13.9142 5.05078 13.5L5.05078 5.5C5.05078 5.08579 5.38657 4.75 5.80078 4.75C6.21499 4.75 6.55078 5.08579 6.55078 5.5L6.55078 13.5C6.55078 13.9142 6.21499 14.25 5.80078 14.25Z" fill="#FF5349"/>
<path d="M4.49921 17C3.94692 17 3.49921 16.5523 3.49921 16L3.49921 13.5C3.49921 12.9477 3.94692 12.5 4.49921 12.5L6.99921 12.5C7.55149 12.5 7.99921 12.9477 7.99921 13.5L7.99921 16C7.99921 16.5523 7.55149 17 6.99921 17L4.49921 17Z" fill="#E9E9E9"/>
<path fill-rule="evenodd" clip-rule="evenodd" d="M4.99921 15.5L6.49921 15.5L6.49921 14L4.99921 14L4.99921 15.5ZM3.49921 16C3.49921 16.5523 3.94692 17 4.49921 17L6.99921 17C7.55149 17 7.99921 16.5523 7.99921 16L7.99921 13.5C7.99921 12.9477 7.55149 12.5 6.99921 12.5L4.49921 12.5C3.94692 12.5 3.49921 12.9477 3.49921 13.5L3.49921 16Z" fill="#FF5349"/>
<path fill-rule="evenodd" clip-rule="evenodd" d="M11.3008 16.75C10.8866 16.75 10.5508 16.4142 10.5508 16L10.5508 5.5C10.5508 5.08579 10.8866 4.75 11.3008 4.75C11.715 4.75 12.0508 5.08579 12.0508 5.5L12.0508 16C12.0508 16.4142 11.715 16.75 11.3008 16.75Z" fill="#FF5349"/>
<path d="M9.99841 13C9.44613 13 8.99841 12.5523 8.99841 12L8.99841 9.5C8.99841 8.94772 9.44613 8.5 9.99841 8.5L12.4984 8.5C13.0507 8.5 13.4984 8.94772 13.4984 9.5L13.4984 12C13.4984 12.5523 13.0507 13 12.4984 13L9.99841 13Z" fill="#E9E9E9"/>
<path fill-rule="evenodd" clip-rule="evenodd" d="M10.4984 11.5L11.9984 11.5L11.9984 10L10.4984 10L10.4984 11.5ZM8.99841 12C8.99841 12.5523 9.44613 13 9.99841 13L12.4984 13C13.0507 13 13.4984 12.5523 13.4984 12L13.4984 9.5C13.4984 8.94772 13.0507 8.5 12.4984 8.5L9.99841 8.5C9.44613 8.5 8.99841 8.94772 8.99841 9.5L8.99841 12Z" fill="#FF5349"/>
<path fill-rule="evenodd" clip-rule="evenodd" d="M16.1992 7.25C16.6134 7.25 16.9492 7.58579 16.9492 8L16.9492 16C16.9492 16.4142 16.6134 16.75 16.1992 16.75C15.785 16.75 15.4492 16.4142 15.4492 16L15.4492 8C15.4492 7.58579 15.785 7.25 16.1992 7.25Z" fill="#FF5349"/>
<path d="M17.4992 4.5C18.0515 4.5 18.4992 4.94772 18.4992 5.5L18.4992 8C18.4992 8.55228 18.0515 9 17.4992 9L14.9992 9C14.4469 9 13.9992 8.55228 13.9992 8L13.9992 5.5C13.9992 4.94772 14.4469 4.5 14.9992 4.5L17.4992 4.5Z" fill="#E9E9E9"/>
<path fill-rule="evenodd" clip-rule="evenodd" d="M16.9992 6L15.4992 6L15.4992 7.5L16.9992 7.5L16.9992 6ZM18.4992 5.5C18.4992 4.94772 18.0515 4.5 17.4992 4.5L14.9992 4.5C14.4469 4.5 13.9992 4.94772 13.9992 5.5L13.9992 8C13.9992 8.55228 14.4469 9 14.9992 9L17.4992 9C18.0515 9 18.4992 8.55228 18.4992 8L18.4992 5.5Z" fill="#FF5349"/>
</svg>
