<svg width="22" height="22" viewBox="0 0 22 22" fill="none" xmlns="http://www.w3.org/2000/svg">
<path d="M13.4564 0.750009H13.4583H19.1304C19.6926 0.750009 20.2317 0.97332 20.6292 1.37081C21.0267 1.76831 21.25 2.30743 21.25 2.86957V17.2165C21.2487 18.2859 20.8234 19.311 20.0672 20.0672C19.311 20.8234 18.2859 21.2487 17.2165 21.25H4.78351C3.71415 21.2487 2.68895 20.8234 1.9328 20.0672C1.17675 19.3111 0.751394 18.2861 0.75 17.2169V8.65265C0.751394 7.58345 1.17675 6.55842 1.9328 5.80237C2.68886 5.04631 3.7139 4.62095 4.78312 4.61957C4.78325 4.61957 4.78338 4.61957 4.78351 4.61957L9.49826 4.61958L9.50115 4.61957C9.78088 4.61849 10.056 4.54867 10.3024 4.41624C10.5488 4.28382 10.7589 4.09286 10.9142 3.86017L10.9652 3.78366L10.9962 3.69708L11.7397 1.6237C11.9276 1.36431 12.1721 1.15069 12.4552 0.999399C12.7632 0.834814 13.1072 0.749129 13.4564 0.750009Z" fill="#E9E9E9" stroke="#5D5D5D" stroke-width="1.5"/>
</svg>
