<svg width="23" height="22" viewBox="0 0 23 22" fill="none" xmlns="http://www.w3.org/2000/svg">
<path d="M0.750162 9.93051H0.750212L0.750113 9.92189C0.744587 9.44117 0.941992 8.98731 1.29473 8.66989L10.1422 1.09209C10.7387 0.635693 11.5611 0.63597 12.1574 1.09292L21.0768 8.67082C21.4289 8.9882 21.6259 9.44164 21.6204 9.92189H21.6203V9.93051L21.6203 19.5989C21.6203 20.5133 20.8836 21.25 19.9692 21.25H15.5272C15.1091 21.25 14.7725 20.9135 14.7725 20.4953L14.7725 16.3014C14.7725 15.0548 13.7644 14.0467 12.5179 14.0467H9.85264C8.60605 14.0467 7.59796 15.0548 7.59796 16.3014L7.59796 20.4953C7.59796 20.9135 7.26144 21.25 6.84327 21.25H2.40125C1.48686 21.25 0.750162 20.5133 0.750162 19.5989L0.750162 9.93051Z" fill="#E9E9E9" stroke="#5D5D5D" stroke-width="1.5"/>
</svg>
