<svg width="23" height="22" viewBox="0 0 23 22" fill="none" xmlns="http://www.w3.org/2000/svg">
<path d="M0.988281 4C0.988281 2.20507 2.44336 0.75 4.23828 0.75L18.2383 0.75C20.0332 0.75 21.4883 2.20507 21.4883 4L21.4883 18C21.4883 19.7949 20.0332 21.25 18.2383 21.25L0.988281 21.25L0.988281 4Z" fill="#E9E9E9" stroke="#5D5D5D" stroke-width="1.5"/>
<mask id="path-2-inside-1_3_13858" fill="white">
<ellipse cx="5.99534" cy="10.6454" rx="1.49821" ry="1.41935"/>
</mask>
<path d="M5.99355 10.6454C5.99355 10.625 5.99835 10.6038 6.00612 10.5864C6.01331 10.5703 6.02069 10.5624 6.02312 10.5601C6.0276 10.5559 6.02113 10.5648 5.99534 10.5648L5.99534 13.5648C7.57376 13.5648 8.99355 12.3331 8.99355 10.6454H5.99355ZM5.99534 10.5648C5.96955 10.5648 5.96308 10.5559 5.96756 10.5601C5.96999 10.5624 5.97737 10.5703 5.98456 10.5864C5.99232 10.6038 5.99713 10.625 5.99713 10.6454H2.99713C2.99713 12.3331 4.41692 13.5648 5.99534 13.5648L5.99534 10.5648ZM5.99713 10.6454C5.99713 10.6658 5.99232 10.6871 5.98456 10.7045C5.97737 10.7206 5.96999 10.7284 5.96756 10.7307C5.96308 10.735 5.96955 10.7261 5.99534 10.7261V7.72607C4.41692 7.72607 2.99713 8.95773 2.99713 10.6454H5.99713ZM5.99534 10.7261C6.02113 10.7261 6.0276 10.735 6.02312 10.7307C6.02069 10.7284 6.01331 10.7206 6.00612 10.7045C5.99835 10.6871 5.99355 10.6658 5.99355 10.6454H8.99355C8.99355 8.95773 7.57376 7.72607 5.99534 7.72607V10.7261Z" fill="#5D5D5D" mask="url(#path-2-inside-1_3_13858)"/>
<mask id="path-4-inside-2_3_13858" fill="white">
<ellipse cx="11.2381" cy="10.6454" rx="1.49821" ry="1.41935"/>
</mask>
<path d="M11.2363 10.6454C11.2363 10.625 11.2411 10.6038 11.2489 10.5864C11.256 10.5703 11.2634 10.5624 11.2659 10.5601C11.2703 10.5559 11.2639 10.5648 11.2381 10.5648V13.5648C12.8165 13.5648 14.2363 12.3331 14.2363 10.6454H11.2363ZM11.2381 10.5648C11.2123 10.5648 11.2058 10.5559 11.2103 10.5601C11.2127 10.5624 11.2201 10.5703 11.2273 10.5864C11.2351 10.6038 11.2399 10.625 11.2399 10.6454H8.23987C8.23987 12.3331 9.65966 13.5648 11.2381 13.5648V10.5648ZM11.2399 10.6454C11.2399 10.6658 11.2351 10.6871 11.2273 10.7045C11.2201 10.7206 11.2127 10.7284 11.2103 10.7307C11.2058 10.735 11.2123 10.7261 11.2381 10.7261V7.72607C9.65966 7.72607 8.23987 8.95773 8.23987 10.6454H11.2399ZM11.2381 10.7261C11.2639 10.7261 11.2703 10.735 11.2659 10.7307C11.2634 10.7284 11.256 10.7206 11.2489 10.7045C11.2411 10.6871 11.2363 10.6658 11.2363 10.6454H14.2363C14.2363 8.95773 12.8165 7.72607 11.2381 7.72607V10.7261Z" fill="#5D5D5D" mask="url(#path-4-inside-2_3_13858)"/>
<mask id="path-6-inside-3_3_13858" fill="white">
<ellipse cx="16.4808" cy="10.6454" rx="1.49821" ry="1.41935"/>
</mask>
<path d="M16.4791 10.6454C16.4791 10.625 16.4839 10.6038 16.4916 10.5864C16.4988 10.5703 16.5062 10.5624 16.5086 10.5601C16.5131 10.5559 16.5066 10.5648 16.4808 10.5648V13.5648C18.0593 13.5648 19.4791 12.3331 19.4791 10.6454H16.4791ZM16.4808 10.5648C16.4551 10.5648 16.4486 10.5559 16.4531 10.5601C16.4555 10.5624 16.4629 10.5703 16.4701 10.5864C16.4778 10.6038 16.4826 10.625 16.4826 10.6454H13.4826C13.4826 12.3331 14.9024 13.5648 16.4808 13.5648V10.5648ZM16.4826 10.6454C16.4826 10.6658 16.4778 10.6871 16.4701 10.7045C16.4629 10.7206 16.4555 10.7284 16.4531 10.7307C16.4486 10.735 16.4551 10.7261 16.4808 10.7261V7.72607C14.9024 7.72607 13.4826 8.95773 13.4826 10.6454H16.4826ZM16.4808 10.7261C16.5066 10.7261 16.5131 10.735 16.5086 10.7307C16.5062 10.7284 16.4988 10.7206 16.4916 10.7045C16.4839 10.6871 16.4791 10.6658 16.4791 10.6454H19.4791C19.4791 8.95773 18.0593 7.72607 16.4808 7.72607V10.7261Z" fill="#5D5D5D" mask="url(#path-6-inside-3_3_13858)"/>
</svg>
