<svg width="22" height="22" viewBox="0 0 22 22" fill="none" xmlns="http://www.w3.org/2000/svg">
    <path d="M0.75 4C0.75 2.20507 2.20507 0.75 4 0.75L18 0.75C19.7949 0.75 21.25 2.20507 21.25 4L21.25 18C21.25 19.7949 19.7949 21.25 18 21.25L0.75 21.25L0.75 4Z" fill="#FFDDDB" stroke="#FF5349" stroke-width="1.5"/>
    <mask id="path-2-inside-1_1088_22403" fill="white">
        <ellipse cx="5.757" cy="10.6452" rx="1.49821" ry="1.41935"/>
    </mask>
    <path d="M5.7552 10.6452C5.7552 10.6248 5.76001 10.6035 5.76778 10.5861C5.77496 10.5701 5.78235 10.5622 5.78477 10.5599C5.78926 10.5556 5.78279 10.5645 5.757 10.5645L5.757 13.5645C7.33541 13.5645 8.75521 12.3329 8.75521 10.6452H5.7552ZM5.757 10.5645C5.73121 10.5645 5.72474 10.5556 5.72922 10.5599C5.73165 10.5622 5.73903 10.5701 5.74622 10.5861C5.75398 10.6035 5.75879 10.6248 5.75879 10.6452H2.75879C2.75879 12.3329 4.17858 13.5645 5.757 13.5645L5.757 10.5645ZM5.75879 10.6452C5.75879 10.6656 5.75398 10.6868 5.74622 10.7042C5.73903 10.7203 5.73165 10.7282 5.72922 10.7305C5.72474 10.7347 5.73121 10.7258 5.757 10.7258V7.72583C4.17858 7.72583 2.75879 8.95749 2.75879 10.6452H5.75879ZM5.757 10.7258C5.78279 10.7258 5.78926 10.7347 5.78477 10.7305C5.78235 10.7282 5.77496 10.7203 5.76778 10.7042C5.76001 10.6868 5.7552 10.6656 5.7552 10.6452H8.75521C8.75521 8.95749 7.33541 7.72583 5.757 7.72583V10.7258Z" fill="#FF5349" mask="url(#path-2-inside-1_1088_22403)"/>
    <mask id="path-4-inside-2_1088_22403" fill="white">
        <ellipse cx="11.0002" cy="10.6452" rx="1.49821" ry="1.41935"/>
    </mask>
    <path d="M10.9984 10.6452C10.9984 10.6248 11.0032 10.6035 11.0109 10.5861C11.0181 10.5701 11.0255 10.5622 11.0279 10.5599C11.0324 10.5556 11.026 10.5645 11.0002 10.5645V13.5645C12.5786 13.5645 13.9984 12.3329 13.9984 10.6452H10.9984ZM11.0002 10.5645C10.9744 10.5645 10.9679 10.5556 10.9724 10.5599C10.9748 10.5622 10.9822 10.5701 10.9894 10.5861C10.9971 10.6035 11.002 10.6248 11.002 10.6452H8.00195C8.00195 12.3329 9.42175 13.5645 11.0002 13.5645V10.5645ZM11.002 10.6452C11.002 10.6656 10.9971 10.6868 10.9894 10.7042C10.9822 10.7203 10.9748 10.7282 10.9724 10.7305C10.9679 10.7347 10.9744 10.7258 11.0002 10.7258V7.72583C9.42175 7.72583 8.00195 8.95749 8.00195 10.6452H11.002ZM11.0002 10.7258C11.026 10.7258 11.0324 10.7347 11.0279 10.7305C11.0255 10.7282 11.0181 10.7203 11.0109 10.7042C11.0032 10.6868 10.9984 10.6656 10.9984 10.6452H13.9984C13.9984 8.95749 12.5786 7.72583 11.0002 7.72583V10.7258Z" fill="#FF5349" mask="url(#path-4-inside-2_1088_22403)"/>
    <mask id="path-6-inside-3_1088_22403" fill="white">
        <ellipse cx="16.2423" cy="10.6452" rx="1.49821" ry="1.41935"/>
    </mask>
    <path d="M16.2406 10.6452C16.2406 10.6248 16.2454 10.6035 16.2531 10.5861C16.2603 10.5701 16.2677 10.5622 16.2701 10.5599C16.2746 10.5556 16.2681 10.5645 16.2423 10.5645V13.5645C17.8208 13.5645 19.2406 12.3329 19.2406 10.6452H16.2406ZM16.2423 10.5645C16.2166 10.5645 16.2101 10.5556 16.2146 10.5599C16.217 10.5622 16.2244 10.5701 16.2316 10.5861C16.2393 10.6035 16.2441 10.6248 16.2441 10.6452H13.2441C13.2441 12.3329 14.6639 13.5645 16.2423 13.5645V10.5645ZM16.2441 10.6452C16.2441 10.6656 16.2393 10.6868 16.2316 10.7042C16.2244 10.7203 16.217 10.7282 16.2146 10.7305C16.2101 10.7347 16.2166 10.7258 16.2423 10.7258V7.72583C14.6639 7.72583 13.2441 8.95749 13.2441 10.6452H16.2441ZM16.2423 10.7258C16.2681 10.7258 16.2746 10.7347 16.2701 10.7305C16.2677 10.7282 16.2603 10.7203 16.2531 10.7042C16.2454 10.6868 16.2406 10.6656 16.2406 10.6452H19.2406C19.2406 8.95749 17.8208 7.72583 16.2423 7.72583V10.7258Z" fill="#FF5349" mask="url(#path-6-inside-3_1088_22403)"/>
</svg>
