<svg width="22" height="22" viewBox="0 0 22 22" fill="none" xmlns="http://www.w3.org/2000/svg">
    <path d="M2.61905 21.2427H2.5895L2.56004 21.245C1.63592 21.3179 0.75 20.5121 0.75 19.2147V3.00953C0.75 1.59503 1.65336 0.75 2.61905 0.75H8.59048C8.84096 0.75 9.20238 1.03658 9.20238 1.50476V8.97308H7.75238C6.96273 8.97308 6.53216 9.61485 6.38223 10.0911C6.22445 10.5923 6.24034 11.2576 6.62109 11.7834L6.635 11.8027L6.6501 11.821L9.89772 15.7565L9.90862 15.7697L9.92012 15.7824C10.1897 16.0802 10.5641 16.2896 11 16.2896C11.4359 16.2896 11.8103 16.0802 12.0799 15.7824L12.0949 15.7658L12.109 15.7482L15.3566 11.6969L15.3681 11.6826L15.3789 11.6677C15.7597 11.1418 15.7755 10.4765 15.6178 9.97535C15.4678 9.4991 15.0373 8.85733 14.2476 8.85733H12.7976V1.50476C12.7976 1.03658 13.159 0.75 13.4095 0.75H19.381C20.3648 0.75 21.25 1.61533 21.25 2.89377V19.0989C21.25 20.3774 20.3648 21.2427 19.381 21.2427H2.61905Z" fill="#E9E9E9" stroke="#5D5D5D" stroke-width="1.5"/>
</svg>