<svg width="26" height="28" viewBox="0 0 26 28" fill="none" xmlns="http://www.w3.org/2000/svg">
<path d="M0 17.3914C0 15.1822 1.79086 13.3914 4 13.3914L21.5652 13.3914C23.7744 13.3914 25.5652 15.1822 25.5652 17.3914V24.0001C25.5652 26.2092 23.7744 28.0001 21.5652 28.0001L4 28.0001C1.79086 28.0001 0 26.2092 0 24.0001L0 17.3914Z" fill="white" fill-opacity="0.3"/>
<path fill-rule="evenodd" clip-rule="evenodd" d="M21.5652 14.3914L4 14.3914C2.34315 14.3914 1 15.7345 1 17.3914L1 24.0001C1 25.6569 2.34314 27.0001 4 27.0001L21.5652 27.0001C23.2221 27.0001 24.5652 25.6569 24.5652 24.0001V17.3914C24.5652 15.7345 23.2221 14.3914 21.5652 14.3914ZM4 13.3914C1.79086 13.3914 0 15.1822 0 17.3914L0 24.0001C0 26.2092 1.79086 28.0001 4 28.0001L21.5652 28.0001C23.7744 28.0001 25.5652 26.2092 25.5652 24.0001V17.3914C25.5652 15.1822 23.7744 13.3914 21.5652 13.3914L4 13.3914Z" fill="white"/>
<path d="M12.1738 5.47826C12.1738 8.50382 9.72111 10.9565 6.69555 10.9565C3.66999 10.9565 1.21729 8.50382 1.21729 5.47826C1.21729 2.4527 3.66999 0 6.69555 0C9.72111 0 12.1738 2.4527 12.1738 5.47826Z" fill="white" fill-opacity="0.3"/>
<path fill-rule="evenodd" clip-rule="evenodd" d="M6.69555 9.95652C9.16882 9.95652 11.1738 7.95154 11.1738 5.47826C11.1738 3.00499 9.16882 1 6.69555 1C4.22227 1 2.21729 3.00499 2.21729 5.47826C2.21729 7.95154 4.22227 9.95652 6.69555 9.95652ZM6.69555 10.9565C9.72111 10.9565 12.1738 8.50382 12.1738 5.47826C12.1738 2.4527 9.72111 0 6.69555 0C3.66999 0 1.21729 2.4527 1.21729 5.47826C1.21729 8.50382 3.66999 10.9565 6.69555 10.9565Z" fill="white"/>
<path d="M24.3479 5.47826C24.3479 8.50382 21.8952 10.9565 18.8696 10.9565C15.8441 10.9565 13.3914 8.50382 13.3914 5.47826C13.3914 2.4527 15.8441 0 18.8696 0C21.8952 0 24.3479 2.4527 24.3479 5.47826Z" fill="white" fill-opacity="0.3"/>
<path fill-rule="evenodd" clip-rule="evenodd" d="M18.8696 9.95652C21.3429 9.95652 23.3479 7.95154 23.3479 5.47826C23.3479 3.00499 21.3429 1 18.8696 1C16.3963 1 14.3914 3.00499 14.3914 5.47826C14.3914 7.95154 16.3963 9.95652 18.8696 9.95652ZM18.8696 10.9565C21.8952 10.9565 24.3479 8.50382 24.3479 5.47826C24.3479 2.4527 21.8952 0 18.8696 0C15.8441 0 13.3914 2.4527 13.3914 5.47826C13.3914 8.50382 15.8441 10.9565 18.8696 10.9565Z" fill="white"/>
</svg>
