<svg width="25" height="25" viewBox="0 0 25 25" fill="none" xmlns="http://www.w3.org/2000/svg">
<path d="M0.5 4C0.5 2.067 2.067 0.5 4 0.5L21 0.5C22.933 0.5 24.5 2.067 24.5 4L24.5 21C24.5 22.933 22.933 24.5 21 24.5L0.5 24.5L0.5 4Z" fill="white" fill-opacity="0.3" stroke="white"/>
<path d="M7.74584 12.8137C7.74584 13.4778 7.20745 14.0162 6.54333 14.0162C5.87921 14.0162 5.34082 13.4778 5.34082 12.8137C5.34082 12.1495 5.87921 11.6111 6.54333 11.6111C7.20745 11.6111 7.74584 12.1495 7.74584 12.8137Z" fill="white" fill-opacity="0.3" stroke="white"/>
<path d="M13.7038 12.8137C13.7038 13.4778 13.1655 14.0162 12.5013 14.0162C11.8372 14.0162 11.2988 13.4778 11.2988 12.8137C11.2988 12.1495 11.8372 11.6111 12.5013 11.6111C13.1655 11.6111 13.7038 12.1495 13.7038 12.8137Z" fill="white" fill-opacity="0.3" stroke="white"/>
<path d="M19.6633 12.8137C19.6633 13.4778 19.1249 14.0162 18.4608 14.0162C17.7967 14.0162 17.2583 13.4778 17.2583 12.8137C17.2583 12.1495 17.7967 11.6111 18.4608 11.6111C19.1249 11.6111 19.6633 12.1495 19.6633 12.8137Z" fill="white" fill-opacity="0.3" stroke="white"/>
</svg>
