<svg width="25" height="26" viewBox="0 0 25 26" fill="none" xmlns="http://www.w3.org/2000/svg">
    <path fill-rule="evenodd" clip-rule="evenodd" d="M3.48469 1.03545C2.11002 1.03545 0.995625 2.19442 0.995625 3.62407V22.3759C0.995625 23.8056 2.11002 24.9646 3.48469 24.9646H21.5153C22.89 24.9646 24.0044 23.8056 24.0044 22.3759V13.0009C24.0044 12.715 24.2273 12.4832 24.5022 12.4832C24.7771 12.4832 25 12.715 25 13.0009V22.3759C25 24.3774 23.4399 26 21.5153 26H3.48469C1.56015 26 0 24.3774 0 22.3759V3.62407C0 1.62255 1.56015 0 3.48469 0H12.5009C12.7758 0 12.9987 0.231793 12.9987 0.517725C12.9987 0.803656 12.7758 1.03545 12.5009 1.03545H3.48469Z" fill="white"/>
    <path fill-rule="evenodd" clip-rule="evenodd" d="M17 0.527073C17 0.235979 17.2098 0 17.4685 0H25V8.47293C25 8.76402 24.7902 9 24.5315 9C24.2727 9 24.063 8.76402 24.063 8.47293V1.05415H17.4685C17.2098 1.05415 17 0.818167 17 0.527073Z" fill="white"/>
    <path fill-rule="evenodd" clip-rule="evenodd" d="M24.8541 0.15701C25.0486 0.366378 25.0486 0.705856 24.8542 0.915255L12.85 13.8429C12.6556 14.0523 12.3403 14.0524 12.1459 13.843C11.9514 13.6336 11.9514 13.2941 12.1458 13.0847L24.15 0.157065C24.3444 -0.0523336 24.6597 -0.0523582 24.8541 0.15701Z" fill="white"/>
</svg>
