<svg width="24" height="24" viewBox="0 0 24 24" fill="none" xmlns="http://www.w3.org/2000/svg">
<path d="M0.500172 10.5324H0.500205L0.500139 10.5266C0.493303 9.93189 0.73836 9.36769 1.17836 8.97321L10.5706 0.92878C11.3119 0.356881 12.339 0.357073 13.08 0.929356L22.5486 8.97383C22.9882 9.36828 23.233 9.9322 23.2261 10.5266L23.2261 10.5266V10.5324L23.2261 20.7867C23.2261 21.9197 22.3125 22.8333 21.1795 22.8333H16.4683C15.8616 22.8333 15.3724 22.3441 15.3724 21.7375V17.2894C15.3724 16.1304 14.4355 15.1935 13.2765 15.1935H10.4498C9.2908 15.1935 8.3539 16.1304 8.3539 17.2894V21.7375C8.3539 22.3441 7.8647 22.8333 7.25802 22.8333H2.54678C1.4138 22.8333 0.500172 21.9197 0.500172 20.7867L0.500172 10.5324Z" fill="white" fill-opacity="0.3" stroke="white"/>
</svg>
